# xmcd
#
# Track frame offsets:
#	150
#	12306
#	27897
#	42790
#	59196
#	72156
#	86526
#	102361
#	121969
#	137325
#	151705
#	169416
#	182823
#	200718
#	219192
#	234263
#	245163
#	260033
#	279448
#	294535
#	310288
#	329117
#	341822
#
# Disc length: 4758 seconds
#
# Revision: 0
# Processed by: cddbd v1.5.2PL0 Copyright (c) Steve Scherf et al.
# Submitted via: EasyCDDAExtractor 12.0.4.1
#
DISCID=5e129417
DTITLE=Various Artist - Country Hits, Vol. 14
DYEAR=2009
DGENRE=Country
TTITLE0=Don Williams - I'll Be There (If You Ever Want Me)
TTITLE1=Ann Tayler - I Wonder
TTITLE2=Confederate Railroad - Keep On Rockin'
TTITLE3=Ann Taylor - Heartache
TTITLE4=Willie Nelson - Lost Highway
TTITLE5=Don Williams - The Long Black Veil
TTITLE6=Brianna White - Learning To Fly
TTITLE7=Corb Lund - A Game In Town Like This
TTITLE8=Patty Loveless - Fools Thin Air
TTITLE9=Ann Tayler - When Tomorrow Comes
TTITLE10=Don Williams - I Need You To Want Me
TTITLE11=Willie Nelson - Blues Eyes Crying In The Rain
TTITLE12=Corb Lund - The Only Long Rider I Know
TTITLE13=Taylor Swift - The Best Day
TTITLE14=Ann Tayler - Everything Will Be O.K
TTITLE15=Don Williams - Reason To Believe
TTITLE16=Confederate Railroad - Momma Ain't Home Tonight
TTITLE17=Willie Nelson - Both Sides Of Goodbye
TTITLE18=Rune Rudberg - When You Smile
TTITLE19=Willie Nelson - Beer For My Horses
TTITLE20=Don Williams - Lord, I Hope This Day Is Good
TTITLE21=Ann Tayler - I Fall To Pieces
TTITLE22=Rosanne Cash - Heartaches by the Number (Feat. Elvis Costello)
EXTD=
EXTT0=
EXTT1=
EXTT2=
EXTT3=
EXTT4=
EXTT5=
EXTT6=
EXTT7=
EXTT8=
EXTT9=
EXTT10=
EXTT11=
EXTT12=
EXTT13=
EXTT14=
EXTT15=
EXTT16=
EXTT17=
EXTT18=
EXTT19=
EXTT20=
EXTT21=
EXTT22=
PLAYORDER=
